<?xml version="1.0" standalone="no"?>
<!DOCTYPE svg PUBLIC "-//W3C//DTD SVG 20010904//EN"
 "http://www.w3.org/TR/2001/REC-SVG-20010904/DTD/svg10.dtd">
<svg version="1.0" xmlns="http://www.w3.org/2000/svg"
 width="300.000000pt" height="300.000000pt" viewBox="0 0 300.000000 300.000000"
 preserveAspectRatio="xMidYMid meet">
<metadata>
Created by potrace 1.11, written by Peter Selinger 2001-2013
</metadata>
<g transform="translate(0.000000,300.000000) scale(0.100000,-0.100000)"
fill="#000000" stroke="none">
<path d="M359 2846 c-87 -31 -139 -79 -178 -166 -20 -44 -21 -61 -21 -1211 l0
-1166 31 -61 c30 -61 71 -101 139 -138 34 -18 77 -19 1165 -19 l1130 0 55 31
c61 34 122 106 138 162 7 25 11 432 14 1197 l3 1160 -28 57 c-30 61 -74 105
-140 140 l-42 23 -1115 2 c-895 2 -1122 0 -1151 -11z m1241 -571 l0 -215 240
0 240 0 0 -80 0 -80 -240 0 -240 0 0 -610 0 -610 -100 0 -100 0 0 610 0 610
-245 0 -245 0 0 80 0 80 245 0 245 0 0 208 c0 115 3 212 7 215 3 4 48 7 100 7
l93 0 0 -215z m-663 -1420 c248 -155 301 -193 258 -183 -29 6 -595 303 -595
312 0 17 34 47 50 44 8 -2 138 -79 287 -173z m1425 158 c10 -9 18 -21 18 -27
0 -10 -563 -307 -595 -314 -8 -2 -15 0 -15 5 1 11 541 351 559 352 8 1 23 -6
33 -16z m-1482 -279 c212 -69 406 -132 433 -140 26 -9 47 -20 47 -25 0 -5
-191 -9 -471 -9 l-471 0 5 28 c3 15 16 82 28 150 13 67 28 122 33 122 6 0 184
-57 396 -126z m1669 4 c12 -68 25 -135 28 -150 l5 -28 -471 0 c-259 0 -471 4
-471 8 0 5 134 53 298 106 163 54 356 117 427 141 72 24 137 44 145 44 13 1
21 -26 39 -121z m31 -283 l0 -25 -1080 0 -1080 0 0 25 0 25 1080 0 1080 0 0
-25z"/>
</g>
</svg>
